<svg width="56" height="56" viewBox="0 0 56 56" fill="none" xmlns="http://www.w3.org/2000/svg">
<path d="M55.9214 28.0393L27.9607 56L0 28.0393H12.6089V16.4293H16.9899V32.4203H10.5769L27.9607 49.8041L45.3445 32.4203H38.8956V16.4293H43.2766V28.0393H55.9214ZM16.9899 0H12.6089V4.38098H16.9899V0ZM43.2766 0H38.8956V4.38098H43.2766V0ZM16.9899 7.66693H12.6089V13.1434H16.9899V7.66693ZM43.2766 7.66693H38.8956V13.1434H43.2766V7.66693Z" fill="#171A1E"/>
<path d="M27.7236 0H21.4V12.9472H20V17.1472H21.4V19.017H20V23.217H21.4V28H25.6V23.217H30.85V19.017H25.6V17.15H27.7247C32.4534 17.15 36.3 13.3033 36.3 8.57527C36.3 3.84666 32.4533 0 27.7236 0ZM27.7253 12.95H25.6V4.19945H27.7253C30.1378 4.19945 32.1006 6.16224 32.1006 8.57473C32.1006 10.9872 30.1378 12.95 27.7253 12.95Z" fill="#171A1E"/>
</svg>
