<svg width="17" height="20" viewBox="0 0 17 20" fill="none" xmlns="http://www.w3.org/2000/svg">
<path d="M2.34375 16.875H14.4922C15.7845 16.875 16.8359 15.8236 16.8359 14.5312V2.34375C16.8359 1.05141 15.7845 0 14.4922 0H2.34375C1.05141 0 0 1.05141 0 2.34375V17.6562C0 18.9486 1.05141 20 2.34375 20H13.7109H14.4922C15.7845 20 16.8359 18.9486 16.8359 17.6562V17.6543C16.1826 18.1458 15.3709 18.4375 14.4922 18.4375H13.7109H2.34375C1.91297 18.4375 1.5625 18.087 1.5625 17.6562C1.5625 17.2255 1.91297 16.875 2.34375 16.875ZM1.5625 2.34375C1.5625 1.91297 1.91297 1.5625 2.34375 1.5625H14.4922C14.923 1.5625 15.2734 1.91297 15.2734 2.34375V14.5312C15.2734 14.962 14.923 15.3125 14.4922 15.3125H2.34375C2.06996 15.3125 1.80695 15.3597 1.5625 15.4464V2.34375ZM7.61719 8.04688H5.03906V6.48438H7.61719V3.94531H9.17969V6.48438H11.7578V8.04688H9.17969V12.9688H7.61719V8.04688Z" fill="black"/>
</svg>
