<svg width="15" height="20" viewBox="0 0 15 20" fill="none" xmlns="http://www.w3.org/2000/svg">
<path d="M4.49859 13.4859L7.03142 12.3446L9.5643 13.4859L9.26163 10.7244L11.1297 8.66817L8.40974 8.10261L7.03142 5.6906L5.65315 8.10265L2.9332 8.66817L4.80125 10.7244L4.49859 13.4859ZM6.66051 9.48916L7.03142 8.84001L7.40241 9.48916L8.13446 9.64135L7.63167 10.1948L7.71312 10.9379L7.03142 10.6308L6.34977 10.9379L6.43125 10.1948L5.92843 9.64139L6.66051 9.48916ZM10.9378 3.1246V0L0 3.32691V20H14.0628V3.1246H10.9378ZM9.37523 2.10849V3.1246H6.03456L9.37523 2.10849ZM12.5003 18.4375H1.56254V4.68714H12.5003V18.4375ZM3.12508 17.0312H10.9378V15.4686H3.12508V17.0312Z" fill="black"/>
</svg>
