<svg width="20" height="16" viewBox="0 0 20 16" fill="none" xmlns="http://www.w3.org/2000/svg">
<path d="M20 4.29688L16.25 5.85938V5.46875C16.25 4.17641 15.1986 3.125 13.9062 3.125H12.8266L11.2641 0H2.96875V1.5625H10.2984L11.0796 3.125H2.34375C1.05141 3.125 0 4.17641 0 5.46875V13.2812C0 14.5736 1.05141 15.625 2.34375 15.625H13.9062C15.1986 15.625 16.25 14.5736 16.25 13.2812V12.8906L20 14.4531V4.29688ZM14.6875 13.2812C14.6875 13.712 14.337 14.0625 13.9062 14.0625H2.34375C1.91297 14.0625 1.5625 13.712 1.5625 13.2812V5.46875C1.5625 5.03797 1.91297 4.6875 2.34375 4.6875H13.9062C14.337 4.6875 14.6875 5.03797 14.6875 5.46875V13.2812ZM18.4375 12.1094L16.25 11.1979V7.55211L18.4375 6.64062V12.1094Z" fill="black"/>
<path d="M12.3438 7.8125C12.7752 7.8125 13.125 7.46272 13.125 7.03125C13.125 6.59978 12.7752 6.25 12.3438 6.25C11.9123 6.25 11.5625 6.59978 11.5625 7.03125C11.5625 7.46272 11.9123 7.8125 12.3438 7.8125Z" fill="black"/>
</svg>
