<svg width="20" height="20" viewBox="0 0 20 20" fill="none" xmlns="http://www.w3.org/2000/svg">
<g clip-path="url(#clip0_6318_6196)">
<path d="M13.9575 8.00781L10.52 0H9.41452L5.93796 8.00781H0L1.3649 17.356L1.36932 17.3834C1.50574 18.1296 1.95175 18.8092 2.62512 19.297C3.25134 19.7504 4.01703 20 4.78119 20H15.1614C15.9248 20 16.6893 19.7501 17.3143 19.2963C17.9828 18.811 18.4294 18.134 18.5721 17.39L19.931 8.00781H13.9575ZM18.105 9.71588L16.6263 11.1946L15.002 9.57031H18.1261L18.105 9.71588ZM9.96613 17.8548L7.73834 15.627L9.96094 13.4044L12.1887 15.6322L9.96613 17.8548ZM13.2936 16.7371L14.994 18.4375H11.593L13.2936 16.7371ZM8.33908 18.4375H4.92767L6.63345 16.7319L8.33908 18.4375ZM8.85605 12.2995L6.63345 14.5221L4.39117 12.28L6.61392 10.0574L8.85605 12.2995ZM8.33664 9.57031H11.5852L9.96094 11.1946L8.33664 9.57031ZM11.0657 12.2995L13.2936 10.0717L15.5214 12.2995L13.2936 14.5273L11.0657 12.2995ZM9.96231 2.6619L12.2571 8.00781H7.6413L9.96231 2.6619ZM4.8912 9.57031L3.28644 11.1751L1.82877 9.71741L1.80725 9.57031H4.8912ZM2.48154 14.1896L3.28644 13.3849L5.52856 15.627L3.31451 17.8409C3.10654 17.6324 2.96051 17.383 2.90863 17.1146L2.48154 14.1896ZM17.0345 17.1112C16.9785 17.3839 16.8274 17.6373 16.6142 17.8479L14.3985 15.6322L16.6263 13.4044L17.4516 14.2297L17.0345 17.1112Z" fill="black"/>
</g>
<defs>
<clipPath id="clip0_6318_6196">
<rect width="20" height="20" fill="white"/>
</clipPath>
</defs>
</svg>
