<svg width="16" height="16" viewBox="0 0 16 16" fill="none" xmlns="http://www.w3.org/2000/svg">
<g opacity="0.3">
<path d="M8.94261 8.0003L10.8282 6.11469L9.88541 5.17188L7.99981 7.0575L6.11419 5.17188L5.17139 6.11469L7.05701 8.0003L5.17139 9.88589L6.11419 10.8288L7.99981 8.94309L9.88541 10.8288L10.8282 9.88589L8.94261 8.0003Z" fill="black"/>
<path fill-rule="evenodd" clip-rule="evenodd" d="M1.3335 7.9987C1.3335 4.3168 4.31826 1.33203 8.00016 1.33203C11.682 1.33203 14.6668 4.3168 14.6668 7.9987C14.6668 11.6806 11.682 14.6654 8.00016 14.6654C4.31826 14.6654 1.3335 11.6806 1.3335 7.9987ZM8.00016 2.66536C5.05464 2.66536 2.66683 5.05318 2.66683 7.9987C2.66683 10.9442 5.05464 13.332 8.00016 13.332C10.9457 13.332 13.3335 10.9442 13.3335 7.9987C13.3335 5.05318 10.9457 2.66536 8.00016 2.66536Z" fill="black"/>
</g>
</svg>
