<svg width="20" height="20" viewBox="0 0 20 20" fill="none" xmlns="http://www.w3.org/2000/svg">
<path d="M0 15.3125H1.5625V16.875H0V18.4375H1.5625V20H3.125V18.4375H9.375V20H10.9375V18.4375H12.5V16.875H10.9375V15.3125H12.5V10.625H0V15.3125ZM9.375 16.875H3.125V15.3125H9.375V16.875ZM1.5625 12.1875H10.9375V13.75H1.5625V12.1875Z" fill="black"/>
<path d="M2.34375 6.25H7.03125C8.32359 6.25 9.375 5.19859 9.375 3.90625C9.375 2.61391 8.32359 1.5625 7.03125 1.5625H6.89738C6.57492 0.653086 5.70605 0 4.6875 0C3.66895 0 2.80008 0.653086 2.47762 1.5625H2.34375C1.05141 1.5625 0 2.61391 0 3.90625C0 5.19859 1.05141 6.25 2.34375 6.25ZM2.34375 3.125H3.90625V2.34375C3.90625 1.91297 4.25672 1.5625 4.6875 1.5625C5.11828 1.5625 5.46875 1.91297 5.46875 2.34375V3.125H7.03125C7.46203 3.125 7.8125 3.47547 7.8125 3.90625C7.8125 4.33703 7.46203 4.6875 7.03125 4.6875H2.34375C1.91297 4.6875 1.5625 4.33703 1.5625 3.90625C1.5625 3.47547 1.91297 3.125 2.34375 3.125Z" fill="black"/>
<path d="M20 3.90625C20 1.75234 18.2477 0 16.0938 0C13.9398 0 12.1875 1.75234 12.1875 3.90625C12.1875 5.7927 13.5317 7.37102 15.3125 7.73395V18.4375H13.75V20H18.4375V18.4375H16.875V7.73395C18.6558 7.37102 20 5.7927 20 3.90625ZM13.75 3.90625C13.75 2.61391 14.8014 1.5625 16.0938 1.5625C17.3861 1.5625 18.4375 2.61391 18.4375 3.90625C18.4375 5.19859 17.3861 6.25 16.0938 6.25C14.8014 6.25 13.75 5.19859 13.75 3.90625Z" fill="black"/>
</svg>
