<svg width="18" height="18" viewBox="0 0 18 18" fill="none" xmlns="http://www.w3.org/2000/svg">
<path fill-rule="evenodd" clip-rule="evenodd" d="M16.2714 0.285063C16.6711 -0.114538 17.2261 -0.092234 17.6591 0.340727C18.092 0.773681 18.1143 1.32881 17.7147 1.72842L10.4433 8.99991L17.7147 16.2714C18.1145 16.6711 18.0921 17.2261 17.6591 17.6591C17.2261 18.092 16.671 18.1144 16.2714 17.7148L8.9999 10.4433L1.72842 17.7148C1.32871 18.1145 0.773632 18.092 0.34072 17.6591C-0.0921946 17.2262 -0.114569 16.6712 0.285056 16.2714L7.55654 8.99991L0.285056 1.72842C-0.114596 1.32875 -0.0920818 0.773619 0.34072 0.340727C0.773627 -0.092182 1.32863 -0.114543 1.72842 0.285063L8.9999 7.55655L16.2714 0.285063Z" fill="#202124"/>
</svg>
