<svg width="20" height="20" viewBox="0 0 20 20" fill="none" xmlns="http://www.w3.org/2000/svg">
<path d="M6.09681 5.46753C6.09681 6.06849 5.17648 6.26098 5.16714 6.26286L5.17245 6.26184L5.45903 7.79747C6.21995 7.65547 7.65896 6.98574 7.65896 5.46749C7.65896 4.48089 7.10525 3.90625 6.70097 3.4867C6.30399 3.07472 6.09681 2.83673 6.09681 2.34321C6.09681 1.75858 7.03027 1.54726 7.03968 1.54519L7.03476 1.54621L6.72104 0C6.66762 0.010935 6.18496 0.131454 5.69374 0.427402C4.94629 0.877728 4.53467 1.55812 4.53467 2.34321C4.53467 3.48986 5.1366 4.11452 5.57607 4.57063C5.93716 4.94539 6.09681 5.1255 6.09681 5.46753Z" fill="black"/>
<path d="M10.7833 5.46753C10.7833 6.06849 9.86299 6.26098 9.85366 6.26286L9.85897 6.26184L10.1455 7.79747C10.9065 7.65547 12.3455 6.98574 12.3455 5.46749C12.3455 4.48089 11.7918 3.90625 11.3875 3.4867C10.9905 3.07472 10.7833 2.83673 10.7833 2.34321C10.7833 1.75858 11.7168 1.54726 11.7262 1.54519L11.7213 1.54621L11.4076 0C11.3541 0.010935 10.8715 0.131454 10.3803 0.427402C9.63281 0.877728 9.22119 1.55812 9.22119 2.34321C9.22119 3.48986 9.82312 4.11452 10.2626 4.57063C10.6237 4.94539 10.7833 5.1255 10.7833 5.46753Z" fill="black"/>
<path d="M14.5325 16.8712C17.5473 16.8712 20 14.4185 20 11.4038C20 10.1117 18.9488 9.06055 17.6568 9.06055C16.8861 9.06055 0.889478 9.06055 0.00460414 9.06055C0.00366685 9.92367 0.00632249 9.77413 0.00261241 10.062C-0.00695569 10.7942 -0.0229286 12.0196 0.611964 13.6748C1.19316 15.1899 2.21831 16.7855 3.66684 18.4334H0.00460414V19.9955H16.8757V18.4334H13.2132C13.6911 17.8892 14.1069 17.3685 14.469 16.8712H14.5325ZM18.4378 11.4038C18.4378 13.2018 17.2163 14.7197 15.5596 15.1717C16.6863 13.1346 16.8634 11.6093 16.8812 10.6227H17.6568C18.0875 10.6227 18.4378 10.9731 18.4378 11.4038ZM5.7983 18.4334C2.0387 14.5931 1.60408 12.0621 1.56557 10.6227H15.3175C15.2811 12.0073 14.8407 14.5922 11.082 18.4334H5.7983Z" fill="black"/>
</svg>
