<svg width="20" height="20" viewBox="0 0 20 20" fill="none" xmlns="http://www.w3.org/2000/svg">
<g clip-path="url(#clip0_6318_6126)">
<path d="M16.5632 1.56904L12.4653 0.0195312H7.50695L3.33975 1.65059L0 5.02042L9.9877 19.9804L20 5.01961L16.5632 1.56904ZM5.83822 8.81512L7.33301 13.2009L3.50279 7.4639L5.83822 8.81512ZM8.42532 5.15575H11.5465L12.4041 7.4904H7.54387L8.42532 5.15575ZM12.3807 9.04683L9.98444 16.1557L7.56154 9.04683H12.3807ZM14.1017 8.8136L16.5321 7.40297L12.5934 13.2884L14.1017 8.8136ZM17.7061 4.92202L13.9249 7.11662L13.0553 4.74933L15.9957 3.20485L17.7061 4.92202ZM7.80072 1.57596H12.181L14.256 2.36064L11.8977 3.59932H8.07578L5.72355 2.38896L7.80072 1.57596ZM3.96256 3.23321L6.9141 4.75198L6.01939 7.1218L2.26278 4.94832L3.96256 3.23321Z" fill="black"/>
</g>
<defs>
<clipPath id="clip0_6318_6126">
<rect width="20" height="20" fill="white"/>
</clipPath>
</defs>
</svg>
