<svg width="24" height="24" viewBox="0 0 24 24" fill="none" xmlns="http://www.w3.org/2000/svg">
<path fill-rule="evenodd" clip-rule="evenodd" d="M3.25 3.33594L5.94086 6.0268C7.42157 4.8745 9.40507 4.00015 12 4.00015C15.8878 4.00015 18.4031 5.96274 19.9113 7.88233C20.6606 8.83598 21.1684 9.78491 21.4892 10.4943C21.6502 10.8502 21.7658 11.1492 21.8421 11.3631C21.8804 11.4701 21.9089 11.5561 21.9285 11.6176C21.9383 11.6484 21.9459 11.673 21.9514 11.6911C21.9526 11.6951 21.9537 11.6988 21.9547 11.7022C21.956 11.7064 21.9571 11.7102 21.958 11.7134C21.9589 11.7162 21.9596 11.7187 21.9602 11.7207L21.9609 11.7234L21.9613 11.7245C21.9614 11.725 21.9615 11.7255 21 12.0002C21.9615 12.2749 21.9614 12.2754 21.9613 12.2759L21.9609 12.277L21.9602 12.2797C21.9596 12.2817 21.9589 12.2842 21.958 12.287L21.9566 12.2918C21.9561 12.2937 21.9555 12.2957 21.9548 12.2978C21.9538 12.3013 21.9527 12.3051 21.9514 12.3092C21.9459 12.3274 21.9383 12.352 21.9285 12.3828C21.9089 12.4443 21.8804 12.5303 21.8421 12.6373C21.7658 12.8512 21.6502 13.1502 21.4892 13.5061C21.1684 14.2154 20.6606 15.1644 19.9113 16.118C19.3879 16.7841 18.7433 17.4554 17.9621 18.0481L20.6642 20.7502L19.4142 22.0002L2 4.58594L3.25 3.33594ZM18.3387 14.8824C17.8561 15.4966 17.2613 16.1043 16.5318 16.6177L14.4331 14.519L14.5165 14.4328C15.1244 13.804 15.5 12.9449 15.5 12.0002C15.5 10.0672 13.933 8.50015 12 8.50015C11.0553 8.50015 10.1962 8.87578 9.56742 9.48369L9.48115 9.5671L7.36824 7.45418C8.52955 6.60896 10.0415 6.00015 12 6.00015C15.1122 6.00015 17.0969 7.53756 18.3387 9.11798C18.9644 9.91433 19.3942 10.7154 19.667 11.3186C19.7937 11.5985 19.8852 11.8329 19.9459 12.0002C19.8852 12.1675 19.7937 12.4018 19.667 12.6818C19.3942 13.285 18.9644 14.086 18.3387 14.8824ZM13.0786 13.0426L13.0186 13.1046L10.8956 10.9815L10.9576 10.9216C11.2284 10.6597 11.5946 10.5002 12 10.5002C12.8284 10.5002 13.5 11.1718 13.5 12.0002C13.5 12.4056 13.3405 12.7718 13.0786 13.0426ZM20.039 12.2769C20.0392 12.2774 20.0392 12.2775 20.0391 12.2771L20.039 12.2769Z" fill="black"/>
<path d="M3.4153 8.82812C3.02036 9.44291 2.72421 10.0208 2.51074 10.4927C2.34975 10.8486 2.23423 11.1476 2.15784 11.3615C2.11962 11.4685 2.09108 11.5545 2.07146 11.616C2.06165 11.6468 2.05406 11.6714 2.04859 11.6895C2.04586 11.6986 2.04365 11.706 2.04197 11.7118C2.04112 11.7146 2.04041 11.7171 2.03983 11.7191L2.03904 11.7218L2.03872 11.7229C2.03859 11.7234 2.03845 11.7239 2.99998 11.9986L2.03845 11.7239L1.95996 11.9986L2.03845 12.2733L2.99998 11.9986C2.03845 12.2733 2.03859 12.2738 2.03872 12.2743L2.03904 12.2754L2.03983 12.2781L2.04059 12.2807L2.04197 12.2854C2.04365 12.2912 2.04586 12.2986 2.04859 12.3076C2.05406 12.3258 2.06165 12.3504 2.07146 12.3812C2.09108 12.4427 2.11962 12.5287 2.15784 12.6357C2.23423 12.8496 2.34975 13.1486 2.51074 13.5045C2.83163 14.2138 3.33936 15.1628 4.08866 16.1164C5.59691 18.036 8.11221 19.9986 12 19.9986C12.8399 19.9986 13.6157 19.907 14.3312 19.744L12.5683 17.9811C12.3832 17.9926 12.1938 17.9986 12 17.9986C8.88774 17.9986 6.90305 16.4612 5.6613 14.8808C5.03559 14.0844 4.60583 13.2834 4.33296 12.6802C4.20633 12.4002 4.11483 12.1659 4.05413 11.9986C4.11483 11.8313 4.20633 11.5969 4.33296 11.317C4.47027 11.0135 4.64732 10.6598 4.86907 10.2819L3.4153 8.82812ZM21 11.9986L21.9615 11.7239L22.04 11.9986L21.9615 12.2733L21 11.9986Z" fill="black"/>
</svg>
