<svg width="44" height="56" viewBox="0 0 44 56" fill="none" xmlns="http://www.w3.org/2000/svg">
<path d="M13.1247 17.4994C8.30011 17.4994 4.375 13.5743 4.375 8.74969C4.375 3.92511 8.30011 0 13.1247 0C17.9493 0 21.8744 3.92511 21.8744 8.74969C21.8744 13.5743 17.9494 17.4994 13.1247 17.4994ZM13.1247 4.37485C10.7124 4.37485 8.74985 6.3374 8.74985 8.74969C8.74985 11.162 10.7124 13.1245 13.1247 13.1245C15.537 13.1245 17.4995 11.162 17.4995 8.74969C17.4995 6.3374 15.537 4.37485 13.1247 4.37485Z" fill="#171A1E"/>
<path d="M37.6953 55.9997L28.4365 51.8737L19.1775 55.9997L20.2407 45.9188L13.4556 38.3882L23.3709 36.2841L28.4365 27.5039L33.5019 36.2841L43.4173 38.3882L36.6322 45.9188L37.6953 55.9997ZM21.7818 41.0936L24.7958 44.4387L24.3236 48.9168L28.4365 47.084L32.5493 48.9168L32.0771 44.4387L35.091 41.0936L30.6867 40.159L28.4365 36.2585L26.1862 40.159L21.7818 41.0936Z" fill="#171A1E"/>
<path d="M9.98307 42.8731H0V24.0613C0 20.4429 2.94384 17.499 6.56227 17.499H19.6868C23.3053 17.499 26.2491 20.4429 26.2491 24.0613V26.8239H21.8742V24.0613C21.8742 22.8551 20.893 21.8739 19.6868 21.8739H6.56227C5.35613 21.8739 4.37485 22.8551 4.37485 24.0613V38.4983H9.98296V42.8731H9.98307Z" fill="#171A1E"/>
</svg>
