<svg width="20" height="20" viewBox="0 0 20 20" fill="none" xmlns="http://www.w3.org/2000/svg">
<path d="M17.6562 0H11.1795C11.1642 0 11.1494 0.000305176 11.1343 0.000457766V0C11.1217 0 11.1092 0.000762938 11.0965 0.000915527C11.0863 0.0012207 11.0762 0.00137329 11.0661 0.00183105C11.0445 0.00244141 11.0226 0.00289917 11.0011 0.00411988C10.0804 0.0454712 9.5929 0.409698 8.98529 0.863953C7.37671 2.06635 5.16174 4.89426 4.03122 6.40625H2.146L1.94901 6.53778C1.19003 7.04437 0.617676 7.58347 0.147858 8.2341L0 8.43887V9.03244L0.158997 9.24194C0.678864 9.92676 1.26114 10.4872 1.93878 10.9554L2.10938 11.0732V20H3.67188V11.0938H4.11667C5.29007 12.6561 7.48184 15.4514 8.96194 16.5945C9.52011 17.0256 10.011 17.4043 10.8665 17.4843C10.9544 17.4944 11.0437 17.5 11.1343 17.5V17.4991C11.1597 17.4995 11.185 17.5 11.2109 17.5H17.6562C18.9485 17.5 20 16.4487 20 15.1562V2.34375C20 1.05133 18.9487 0 17.6562 0V0ZM1.75797 8.72696C2.0047 8.45734 2.28943 8.20892 2.62604 7.96875H3.55469V9.53125H2.63443C2.31842 9.29428 2.0282 9.02802 1.75797 8.72696ZM5.11719 9.82071V7.56592C5.90607 6.50238 7.435 4.50851 8.79059 3.13202V14.3086C7.46521 12.9211 5.91583 10.8951 5.11719 9.82071ZM18.4375 15.1562C18.4375 15.587 18.087 15.9375 17.6562 15.9375H11.2109C11.152 15.9375 11.0974 15.9357 11.046 15.9322C10.6567 15.8881 10.3531 15.5571 10.3531 15.1562V2.34375C10.3531 1.9165 10.6979 1.56876 11.1238 1.56311C11.142 1.56281 11.1604 1.5625 11.1795 1.5625H17.6562C18.087 1.5625 18.4375 1.91299 18.4375 2.34375V15.1562Z" fill="black"/>
</svg>
