<svg width="20" height="18" viewBox="0 0 20 18" fill="none" xmlns="http://www.w3.org/2000/svg">
<path d="M18.3982 1.6018C17.3654 0.568867 16.0197 0 14.6094 0C13.199 0 11.8534 0.568867 10.8205 1.60176L10 2.4223L9.17949 1.6018C8.1466 0.568867 6.80098 0 5.39062 0C3.98027 0 2.63465 0.568867 1.60176 1.60176C0.568828 2.63469 0 4.00801 0 5.46875C0 6.92816 0.567734 8.30023 1.59887 9.33281L10 17.9013L18.4011 9.33285C19.4323 8.30023 20 6.9282 20 5.46875C20 4.00801 19.4312 2.63469 18.3982 1.6018ZM17.2934 8.2309L10 15.6695L2.70664 8.2309C1.96883 7.49312 1.5625 6.51215 1.5625 5.46879C1.5625 4.42543 1.96883 3.44445 2.70664 2.70664C3.44441 1.96883 4.39762 1.5625 5.39062 1.5625C6.38363 1.5625 7.33684 1.96883 8.07461 2.7066L10 4.63199L11.9254 2.70664C12.6632 1.96887 13.6164 1.56254 14.6094 1.56254C15.6024 1.56254 16.5556 1.96887 17.2934 2.70664C18.0312 3.44441 18.4375 4.42539 18.4375 5.46879C18.4375 6.51219 18.0312 7.49308 17.2934 8.2309Z" fill="black"/>
</svg>
