<svg width="11" height="20" viewBox="0 0 11 20" fill="none" xmlns="http://www.w3.org/2000/svg">
<path d="M3.12499 16.875H7.81248V15.3125H3.12499V16.875ZM3.12499 13.75H7.81248V12.1875H3.12499V13.75ZM5.7617 0.00772822C2.59679 -0.157818 0 2.35796 0 5.46877C0 6.76112 1.0514 7.81252 2.34374 7.81252C3.63608 7.81252 4.68749 6.76112 4.68749 5.46877C4.68749 5.03799 5.03796 4.68753 5.46874 4.68753C5.89952 4.68753 6.24998 5.03799 6.24998 5.46877V8.28127C6.24998 8.71205 5.89952 9.06252 5.46874 9.06252H2.34374C1.0514 9.06252 0 10.1139 0 11.4063V17.6563C0 18.9486 1.0514 20 2.34374 20H8.59373C9.88607 20 10.9375 18.9486 10.9375 17.6563L10.9375 5.73401C10.9375 2.76515 8.70252 0.161712 5.7617 0.00772822ZM9.37498 17.6563C9.37498 18.087 9.02451 18.4375 8.59373 18.4375H2.34374C1.91296 18.4375 1.5625 18.087 1.5625 17.6563V11.4063C1.5625 10.9755 1.91296 10.625 2.34374 10.625H5.46874C6.76108 10.625 7.81248 9.57361 7.81248 8.28127V5.46877C7.81248 4.17643 6.76108 3.12503 5.46874 3.12503C4.17639 3.12503 3.12499 4.17643 3.12499 5.46877C3.12499 5.89956 2.77452 6.25002 2.34374 6.25002C1.91296 6.25002 1.5625 5.89956 1.5625 5.46877C1.5625 3.24933 3.41378 1.44995 5.67998 1.56812C7.7174 1.6748 9.37501 3.54362 9.37501 5.73401L9.37498 17.6563Z" fill="black"/>
</svg>
