<svg width="20" height="20" viewBox="0 0 20 20" fill="none" xmlns="http://www.w3.org/2000/svg">
<g clip-path="url(#clip0_6318_6153)">
<path d="M10 0.466797L0 9.15102L1.02367 10.3298L1.95988 9.51672V17.1906C1.95988 18.4819 3.01039 19.5324 4.30168 19.5324H8.67301V11.8826H11.4051V19.5324H15.6984C16.9896 19.5324 18.0402 18.4819 18.0402 17.1906V9.51676L18.9764 10.3298L20 9.15106L10 0.466797ZM16.4789 17.1906C16.4789 17.6211 16.1288 17.9712 15.6984 17.9712H12.9663V10.3214H7.1118V17.9713H4.30164C3.87121 17.9713 3.52105 17.6211 3.52105 17.1907V8.16098L10 2.53453L16.4789 8.16098V17.1906Z" fill="black"/>
</g>
<defs>
<clipPath id="clip0_6318_6153">
<rect width="20" height="20" fill="white"/>
</clipPath>
</defs>
</svg>
