<svg width="20" height="20" viewBox="0 0 20 20" fill="none" xmlns="http://www.w3.org/2000/svg">
<path d="M19.3734 15H18.1234V13.125H18.7484C18.9141 13.125 19.0731 13.0592 19.1903 12.9419C19.3075 12.8247 19.3734 12.6658 19.3734 12.5C19.3734 12.3342 19.3075 12.1753 19.1903 12.0581C19.0731 11.9408 18.9141 11.875 18.7484 11.875H18.1234V10C18.1234 9.83424 18.0575 9.67527 17.9403 9.55806C17.8231 9.44085 17.6641 9.375 17.4984 9.375C17.3326 9.375 17.1736 9.44085 17.0564 9.55806C16.9392 9.67527 16.8734 9.83424 16.8734 10V10.3125H16.5609C16.3951 10.3125 16.2361 10.3783 16.1189 10.4956C16.0017 10.6128 15.9359 10.7717 15.9359 10.9375C15.9359 11.1033 16.0017 11.2622 16.1189 11.3794C16.2361 11.4967 16.3951 11.5625 16.5609 11.5625H16.8734V15H15.6234C15.5327 15.0007 15.4432 15.021 15.3611 15.0595C15.279 15.0979 15.2062 15.1537 15.1476 15.223C15.0891 15.2922 15.0462 15.3733 15.022 15.4607C14.9977 15.5481 14.9926 15.6397 15.0071 15.7292L15.6411 19.4792C15.6657 19.6249 15.7411 19.7571 15.8539 19.8524C15.9667 19.9477 16.1097 20 16.2574 20H18.7394C18.8871 20 19.03 19.9477 19.1428 19.8524C19.2556 19.7571 19.331 19.6249 19.3557 19.4792L19.9897 15.7292C20.0041 15.6397 19.999 15.5481 19.9748 15.4607C19.9505 15.3733 19.9076 15.2922 19.8491 15.223C19.7905 15.1537 19.7177 15.0979 19.6356 15.0595C19.5535 15.021 19.464 15.0007 19.3734 15ZM18.2111 18.75H16.7856L16.3629 16.25H18.6338L18.2111 18.75Z" fill="black"/>
<path d="M15.9375 8.125C16.741 8.125 17.5264 7.88674 18.1945 7.44035C18.8626 6.99395 19.3833 6.35948 19.6907 5.61715C19.9982 4.87483 20.0787 4.05799 19.9219 3.26995C19.7652 2.4819 19.3783 1.75803 18.8101 1.18988C18.242 0.62173 17.5181 0.234814 16.73 0.0780616C15.942 -0.0786908 15.1252 0.00176022 14.3828 0.309241C13.6405 0.616722 13.006 1.13742 12.5597 1.8055C12.1133 2.47357 11.875 3.25901 11.875 4.0625C11.8762 5.13958 12.3046 6.1722 13.0662 6.9338C13.8278 7.69541 14.8604 8.12381 15.9375 8.125ZM15.9375 1.25C16.4938 1.25 17.0375 1.41495 17.5 1.72399C17.9625 2.03303 18.323 2.47229 18.5359 2.9862C18.7488 3.50012 18.8045 4.06562 18.6959 4.61119C18.5874 5.15676 18.3196 5.6579 17.9262 6.05124C17.5329 6.44457 17.0318 6.71244 16.4862 6.82096C15.9406 6.92948 15.3751 6.87378 14.8612 6.66091C14.3473 6.44804 13.908 6.08756 13.599 5.62504C13.2899 5.16253 13.125 4.61876 13.125 4.0625C13.1259 3.31685 13.4225 2.60198 13.9497 2.07472C14.477 1.54746 15.1918 1.25087 15.9375 1.25Z" fill="black"/>
<path d="M16.1206 5.12939C16.2378 5.24659 16.3968 5.31243 16.5625 5.31243C16.7282 5.31243 16.8872 5.24659 17.0044 5.12939C17.1216 5.0122 17.1874 4.85324 17.1874 4.6875C17.1874 4.52176 17.1216 4.3628 17.0044 4.24561L16.5625 3.80371V2.8125C16.5625 2.64674 16.4967 2.48777 16.3794 2.37056C16.2622 2.25335 16.1033 2.1875 15.9375 2.1875C15.7717 2.1875 15.6128 2.25335 15.4956 2.37056C15.3783 2.48777 15.3125 2.64674 15.3125 2.8125V4.0625C15.3144 4.22808 15.3801 4.38654 15.496 4.50479L16.1206 5.12939Z" fill="black"/>
<path d="M12.5 10.9375V8.75C12.4995 8.33575 12.3347 7.9386 12.0418 7.64568C11.7489 7.35276 11.3518 7.18799 10.9375 7.1875H2.8125C2.39825 7.18799 2.0011 7.35276 1.70818 7.64568C1.41526 7.9386 1.25049 8.33575 1.25 8.75V10.9375C0.918596 10.9379 0.600873 11.0697 0.366535 11.304C0.132197 11.5384 0.000378808 11.8561 0 12.1875L0 18.75C0.000378808 19.0814 0.132197 19.3991 0.366535 19.6335C0.600873 19.8678 0.918596 19.9996 1.25 20H2.5C2.8314 19.9996 3.14913 19.8678 3.38347 19.6335C3.6178 19.3991 3.74962 19.0814 3.75 18.75V18.125H10V18.75C10.0004 19.0814 10.1322 19.3991 10.3665 19.6335C10.6009 19.8678 10.9186 19.9996 11.25 20H12.5C12.8314 19.9996 13.1491 19.8678 13.3835 19.6335C13.6178 19.3991 13.7496 19.0814 13.75 18.75V12.1875C13.7496 11.8561 13.6178 11.5384 13.3835 11.304C13.1491 11.0697 12.8314 10.9379 12.5 10.9375ZM1.25 18.75V12.1875H2.5L2.50025 14.3725L2.5 14.375V17.5L2.50062 17.5061L2.50076 18.75H1.25ZM10 16.875H3.75V15H10V16.875ZM10 12.1875V13.75H3.75V12.1875C3.74962 11.8561 3.6178 11.5384 3.38347 11.304C3.14913 11.0697 2.8314 10.9379 2.5 10.9375V8.75C2.50011 8.66715 2.53307 8.58773 2.59165 8.52915C2.65023 8.47057 2.72965 8.43761 2.8125 8.4375H10.9375C11.0203 8.43761 11.0998 8.47057 11.1584 8.52915C11.2169 8.58773 11.2499 8.66715 11.25 8.75V10.9375C10.9186 10.9379 10.6009 11.0697 10.3665 11.304C10.1322 11.5384 10.0004 11.8561 10 12.1875ZM12.5 18.75H11.25V12.1875H12.5V18.75Z" fill="black"/>
<path d="M8.125 11.875C8.47018 11.875 8.75 11.5952 8.75 11.25C8.75 10.9048 8.47018 10.625 8.125 10.625C7.77982 10.625 7.5 10.9048 7.5 11.25C7.5 11.5952 7.77982 11.875 8.125 11.875Z" fill="black"/>
<path d="M5.625 11.875C5.97018 11.875 6.25 11.5952 6.25 11.25C6.25 10.9048 5.97018 10.625 5.625 10.625C5.27982 10.625 5 10.9048 5 11.25C5 11.5952 5.27982 11.875 5.625 11.875Z" fill="black"/>
</svg>
