<svg width="20" height="20" viewBox="0 0 20 20" fill="none" xmlns="http://www.w3.org/2000/svg">
<path d="M13.9062 0C10.5461 0 7.8125 2.73363 7.8125 6.09375C7.8125 6.56445 7.86621 7.03055 7.97254 7.48512L0 15.4577V20H5V17.8125H7.1875V15.625H9.375V13.4375H11.1048L12.5149 12.0275C12.9695 12.1338 13.4356 12.1875 13.9062 12.1875C17.2664 12.1875 20 9.45387 20 6.09375C20 2.73363 17.2664 0 13.9062 0ZM13.9062 10.625C13.4341 10.625 12.9684 10.5525 12.5223 10.4096L12.0684 10.2642L10.4577 11.875H7.8125V14.0625H5.625V16.25H3.4375V18.4375H1.5625V16.1048L9.73582 7.93156L9.59043 7.47773C9.44746 7.0316 9.375 6.56598 9.375 6.09375C9.375 3.5952 11.4077 1.5625 13.9062 1.5625C16.4048 1.5625 18.4375 3.5952 18.4375 6.09375C18.4375 8.59231 16.4048 10.625 13.9062 10.625Z" fill="black"/>
</svg>
