<svg width="28" height="28" viewBox="0 0 28 28" fill="none" xmlns="http://www.w3.org/2000/svg">
<g opacity="0.3">
<path fill-rule="evenodd" clip-rule="evenodd" d="M13.9998 7.58301C11.7447 7.58301 9.9165 9.41117 9.9165 11.6663C9.9165 13.9215 11.7447 15.7497 13.9998 15.7497C16.255 15.7497 18.0832 13.9215 18.0832 11.6663C18.0832 9.41117 16.255 7.58301 13.9998 7.58301ZM12.2498 11.6663C12.2498 10.6998 13.0334 9.91634 13.9998 9.91634C14.9663 9.91634 15.7498 10.6998 15.7498 11.6663C15.7498 12.6328 14.9663 13.4163 13.9998 13.4163C13.0334 13.4163 12.2498 12.6328 12.2498 11.6663Z" fill="#171A1E"/>
<path fill-rule="evenodd" clip-rule="evenodd" d="M13.9998 2.33301C8.84518 2.33301 4.6665 6.51168 4.6665 11.6663C4.6665 13.3838 5.26274 15.1059 6.0735 16.6695C6.8895 18.2433 7.96397 19.7348 9.01592 21.0122C10.0707 22.293 11.1223 23.3818 11.9088 24.1496C12.3028 24.5342 12.6322 24.8401 12.8646 25.0512C12.9809 25.1567 13.0729 25.2386 13.137 25.2951C13.1689 25.3232 13.1939 25.345 13.2113 25.3602C13.2168 25.3649 13.2214 25.369 13.2254 25.3725L13.2318 25.3779L13.2401 25.3851C13.2403 25.3853 13.2406 25.3855 13.9998 24.4997L13.2406 25.3855L13.9998 26.0363L14.7591 25.3855L13.9998 24.4997C14.7591 25.3855 14.7593 25.3853 14.7596 25.3851L14.7679 25.3779L14.7754 25.3714C14.779 25.3683 14.7835 25.3644 14.7884 25.3602C14.8058 25.345 14.8307 25.3232 14.8627 25.2951C14.9268 25.2386 15.0188 25.1567 15.1351 25.0512C15.3675 24.8401 15.6969 24.5342 16.0908 24.1496C16.8774 23.3818 17.9289 22.293 18.9837 21.0122C20.0357 19.7348 21.1102 18.2433 21.9262 16.6695C22.7369 15.1059 23.3332 13.3838 23.3332 11.6663C23.3332 6.51168 19.1545 2.33301 13.9998 2.33301ZM14.4609 22.4799C14.2935 22.6434 14.1388 22.7913 13.9998 22.9225C13.8609 22.7913 13.7062 22.6434 13.5388 22.4799C12.7941 21.753 11.8039 20.7271 10.8171 19.5289C9.82737 18.3271 8.86017 16.9748 8.14492 15.5954C7.42443 14.2059 6.99984 12.8656 6.99984 11.6663C6.99984 7.80034 10.1338 4.66634 13.9998 4.66634C17.8658 4.66634 20.9998 7.80034 20.9998 11.6663C20.9998 12.8656 20.5753 14.2059 19.8547 15.5954C19.1395 16.9748 18.1723 18.3271 17.1826 19.5289C16.1957 20.7271 15.2056 21.753 14.4609 22.4799Z" fill="#171A1E"/>
</g>
</svg>
