<svg width="69" height="72" viewBox="0 0 69 72" fill="none" xmlns="http://www.w3.org/2000/svg">
<g clip-path="url(#clip0_6383_564)">
<path fill-rule="evenodd" clip-rule="evenodd" d="M39.5415 21.9398C39.5576 21.9577 39.5747 21.975 39.5927 21.9917C39.6106 22.0084 39.6292 22.0241 39.6483 22.0389C39.6633 22.051 39.6779 22.0624 39.6918 22.073C39.7077 22.0852 39.7298 22.1017 39.7543 22.1184C39.7662 22.1264 39.7868 22.1401 39.8127 22.1549C39.8258 22.1625 39.8457 22.1735 39.8706 22.1854C39.8833 22.1914 39.8996 22.1988 39.9188 22.2065C39.9376 22.2141 39.9633 22.2236 39.9944 22.2327C40.0244 22.2415 40.0695 22.2529 40.1253 22.2598C40.1539 22.2633 40.1889 22.2661 40.2289 22.266C40.2686 22.2658 40.3172 22.2628 40.3718 22.2529C40.4813 22.2332 40.6296 22.1829 40.7659 22.0631C40.8331 22.004 40.8888 21.9353 40.9317 21.8607C40.9742 21.7869 41.0006 21.7139 41.0164 21.6476C41.032 21.5821 41.0372 21.5228 41.0378 21.4736C41.0384 21.4245 41.0343 21.3816 41.0291 21.3468C41.019 21.2791 41.0019 21.2254 40.9894 21.1912C40.9763 21.1554 40.9628 21.1264 40.9524 21.1059C40.9418 21.0849 40.9318 21.0673 40.9237 21.0539C40.908 21.0277 40.8937 21.0071 40.8842 20.9941C40.8743 20.9803 40.8653 20.9689 40.8585 20.9604C40.8452 20.9438 40.8334 20.9303 40.8254 20.9214C40.8094 20.9035 40.7944 20.888 40.7836 20.8771C40.7614 20.8545 40.7376 20.8318 40.7166 20.8123C40.6956 20.7928 40.6712 20.7708 40.647 20.7503C40.6353 20.7404 40.6188 20.7266 40.6 20.7121C40.5906 20.7049 40.5766 20.6943 40.5595 20.6825C40.5507 20.6764 40.539 20.6686 40.525 20.6599C40.5118 20.6516 40.4913 20.6393 40.4654 20.626C40.4521 20.6191 40.435 20.6107 40.4146 20.6019C40.3948 20.5933 40.3672 20.5823 40.3336 20.5718C40.3013 20.5617 40.2518 20.5483 40.19 20.5406C40.1583 20.5366 40.1194 20.5336 40.075 20.5343C40.0307 20.535 39.9769 20.5394 39.9169 20.5521C39.8565 20.5649 39.7877 20.5867 39.7162 20.623C39.6439 20.6597 39.5732 20.7093 39.5096 20.7729C39.4461 20.8366 39.3968 20.9072 39.3605 20.9795C39.3246 21.0509 39.3035 21.1196 39.2914 21.1799C39.2794 21.2397 39.2758 21.2933 39.2759 21.3374C39.276 21.3816 39.2797 21.4202 39.2844 21.4516C39.2934 21.5129 39.308 21.5618 39.3189 21.5937C39.3303 21.6269 39.3421 21.6541 39.3512 21.6736C39.3606 21.6936 39.3695 21.7105 39.3767 21.7235C39.3908 21.7489 39.4038 21.7691 39.4125 21.7821C39.4297 21.8078 39.4453 21.8281 39.4543 21.8395C39.4729 21.8631 39.4912 21.8842 39.5045 21.8991C39.516 21.9121 39.5285 21.9257 39.5415 21.9398ZM40.6873 20.8081C40.6873 20.8081 40.687 20.8079 40.6865 20.8075C40.687 20.8079 40.6873 20.8081 40.6873 20.8081ZM40.7223 20.8407C40.7223 20.8407 40.7225 20.841 40.723 20.8416C40.7225 20.841 40.7223 20.8407 40.7223 20.8407Z" fill="#171A1E"/>
<path fill-rule="evenodd" clip-rule="evenodd" d="M37.5755 20.5517C36.2964 19.9801 34.8585 19.8551 33.498 20.1973C32.1374 20.5395 30.9352 21.3286 30.0889 22.4349C29.2426 23.5411 28.8024 24.8988 28.8408 26.2848C28.8792 27.6708 29.3938 29.0027 30.3001 30.0617C31.2064 31.1206 32.4504 31.8436 33.8278 32.1119C35.2053 32.3802 36.6341 32.1778 37.8797 31.5379C39.1252 30.8981 40.1133 29.8589 40.6817 28.5911C41.25 27.3233 41.3648 25.9022 41.0071 24.5614C40.893 24.1336 41.1517 23.6955 41.5849 23.5828C42.018 23.4701 42.4617 23.7255 42.5758 24.1533C43.0272 25.8457 42.8824 27.6393 42.165 29.2396C41.4476 30.8399 40.2004 32.1516 38.6282 32.9592C37.0561 33.7668 35.2526 34.0223 33.5139 33.6837C31.7753 33.345 30.2051 32.4324 29.0611 31.0958C27.9172 29.7592 27.2677 28.078 27.2192 26.3286C27.1708 24.5792 27.7263 22.8655 28.7946 21.4691C29.8629 20.0728 31.3803 19.0768 33.0976 18.6448C34.8148 18.2129 36.6298 18.3706 38.2443 19.0922C38.6524 19.2746 38.8335 19.7492 38.6488 20.1522C38.4641 20.5553 37.9836 20.7341 37.5755 20.5517Z" fill="#171A1E"/>
<path fill-rule="evenodd" clip-rule="evenodd" d="M27.0066 11.081C27.1382 10.795 27.4269 10.6113 27.745 10.6113H41.4316C41.7497 10.6113 42.0385 10.795 42.1701 11.081L44.2339 15.5663H50.5857C52.0356 15.5663 53.4524 16.5746 53.4524 18.0861V36.1212C53.4524 37.6328 52.0388 38.6392 50.5857 38.6392H24.7062C24.2583 38.6392 23.8951 38.2806 23.8951 37.8382C23.8951 37.3958 24.2583 37.0372 24.7062 37.0372H50.5857C51.4074 37.0372 51.8302 36.5076 51.8302 36.1212V18.0861C51.8302 17.6994 51.4038 17.1683 50.5857 17.1683H43.7116C43.3935 17.1683 43.1048 16.9847 42.9732 16.6987L40.9093 12.2134H28.2674L26.2035 16.6987C26.0719 16.9847 25.7832 17.1683 25.4651 17.1683H18.4145C17.5939 17.1683 17.17 17.6987 17.17 18.0861V36.1212C17.17 36.5068 17.5953 37.0372 18.4145 37.0372H20.0727C20.5206 37.0372 20.8837 37.3958 20.8837 37.8382C20.8837 38.2806 20.5206 38.6392 20.0727 38.6392H18.4145C16.9658 38.6392 15.5479 37.6335 15.5479 36.1212V18.0861C15.5479 16.5754 16.9603 15.5663 18.4145 15.5663H24.9427L27.0066 11.081Z" fill="#171A1E"/>
<path d="M9.60607 48.3535L6.65463 57.5868H3.47537L0.523926 48.3535H1.91485L4.43977 56.3721H5.70907L8.25283 48.3535H9.60607Z" fill="#171A1E"/>
<path fill-rule="evenodd" clip-rule="evenodd" d="M0.290527 48.1846H2.04128L4.56619 56.2032H5.58354L8.1273 48.1846H9.84008L6.78049 57.7561H3.35012L0.290527 48.1846ZM0.757937 48.5229L3.60123 57.4178H6.52938L9.37267 48.5229H8.37898L5.83522 56.5415H4.31395L1.78904 48.5229H0.757937Z" fill="#171A1E"/>
<path d="M16.8181 53.6028H15.2148V57.5868H13.8804V48.3535H15.2148V52.3358H16.7907L20.2166 48.3535H21.7669L17.8938 52.85L21.8474 57.5868H20.1584L16.8181 53.6028Z" fill="#171A1E"/>
<path fill-rule="evenodd" clip-rule="evenodd" d="M13.709 48.1846H15.386V52.1668H16.7114L20.1373 48.1846H22.1374L18.1172 52.852L22.2105 57.7561H20.0777L16.7375 53.7722H15.386V57.7561H13.709V48.1846ZM14.0516 48.5229V57.4178H15.0434V53.4339H16.8986L20.2389 57.4178H21.4841L17.6703 52.8485L21.3962 48.5229H20.2958L16.8698 52.5051H15.0434V48.5229H14.0516Z" fill="#171A1E"/>
<path d="M31.6726 55.4755H26.6639L25.9958 57.5868H24.646L27.5974 48.3535H30.7767L33.7281 57.5868H32.3389L31.6726 55.4755ZM31.2974 54.2626L29.8157 49.5665H28.5464L27.051 54.2626H31.2974Z" fill="#171A1E"/>
<path fill-rule="evenodd" clip-rule="evenodd" d="M27.4722 48.1846H30.9026L33.9622 57.7561H32.2132L31.5469 55.6449H26.7901L26.1221 57.7561H24.4126L27.4722 48.1846ZM27.7233 48.5229L24.88 57.4178H25.8702L26.5382 55.3066H31.7989L32.4653 57.4178H33.4947L30.6515 48.5229H27.7233ZM28.421 49.3975H29.9421L31.5305 54.432H26.8179L28.421 49.3975ZM28.6724 49.7358L27.2847 54.0936H31.065L29.69 49.7358H28.6724Z" fill="#171A1E"/>
<path d="M45.9502 52.9786C45.9502 55.577 44.1327 57.5952 41.0751 57.5952H37.8701V48.3535H41.0751C44.1327 48.3535 45.9502 50.3717 45.9502 52.9786ZM44.5473 52.9786C44.5473 50.9333 43.2111 49.6274 41.0751 49.6274H39.2045V56.3281H41.0751C43.2111 56.3197 44.5473 55.0086 44.5473 52.9786Z" fill="#171A1E"/>
<path fill-rule="evenodd" clip-rule="evenodd" d="M37.6987 48.1846H41.075C42.6433 48.1846 43.9078 48.703 44.7806 49.5694C45.6528 50.4351 46.1214 51.6361 46.1214 52.9788C46.1214 54.3175 45.6527 55.5163 44.7805 56.3809C43.9078 57.2462 42.6433 57.7646 41.075 57.7646H37.6987V48.1846ZM38.0413 48.5229V57.4263H41.075C42.5644 57.4263 43.7374 56.9356 44.5378 56.1421C45.3388 55.3481 45.7788 54.2386 45.7788 52.9788C45.7788 51.7147 45.3387 50.6031 44.5377 49.808C43.7374 49.0136 42.5643 48.5229 41.075 48.5229H38.0413ZM39.0331 49.4584H41.075C42.1787 49.4584 43.093 49.7964 43.7321 50.4155C44.3715 51.0348 44.7185 51.919 44.7185 52.9788C44.7185 54.0313 44.3713 54.9129 43.7321 55.5324C43.0933 56.1516 42.1793 56.4932 41.0757 56.4975L41.075 56.4975H39.0331V49.4584ZM39.3757 49.7967V56.1592H41.0746C42.1069 56.155 42.9289 55.8369 43.4921 55.2909C44.055 54.7453 44.3759 53.9563 44.3759 52.9788C44.3759 51.9933 44.0548 51.202 43.4922 50.657C42.9292 50.1117 42.1074 49.7967 41.075 49.7967H39.3757Z" fill="#171A1E"/>
<path d="M53.5096 53.7602H51.7624V57.5868H50.4263V48.3535H54.5134C56.4371 48.3535 57.506 49.5275 57.506 51.0602C57.506 52.4136 56.6632 53.5013 55.1078 53.7246L58.2203 57.5901H56.5416L53.5096 53.7602ZM51.7624 52.5607H54.4329C55.5018 52.5607 56.103 52.0194 56.103 51.0568C56.103 50.0943 55.5018 49.5529 54.4329 49.5529H51.7624V52.5607Z" fill="#171A1E"/>
<path fill-rule="evenodd" clip-rule="evenodd" d="M50.2549 48.1846H54.5133C55.511 48.1846 56.3048 48.4897 56.8501 49.0108C57.3954 49.5318 57.6772 50.2545 57.6772 51.0604C57.6772 51.7722 57.4552 52.4228 57.0204 52.9262C56.6377 53.3693 56.0974 53.6898 55.4194 53.8401L58.5752 57.7595H56.458L53.426 53.9295H51.9336V57.7561H50.2549V48.1846ZM50.5975 48.5229V57.4178H51.591V53.5912H53.593L56.625 57.4212H57.8651L54.7882 53.5998L55.0831 53.5574C55.8247 53.451 56.3848 53.1407 56.7597 52.7066C57.1352 52.2719 57.3346 51.7021 57.3346 51.0604C57.3346 50.3337 57.0819 49.7031 56.6119 49.2539C56.1418 48.8048 55.4393 48.5229 54.5133 48.5229H50.5975ZM51.591 49.384H54.4328C54.9947 49.384 55.459 49.5263 55.7841 49.8191C56.1117 50.1141 56.2742 50.5401 56.2742 51.0571C56.2742 51.574 56.1117 52.0001 55.7841 52.295C55.459 52.5878 54.9947 52.7301 54.4328 52.7301H51.591V49.384ZM51.9336 49.7223V52.3918H54.4328C54.9398 52.3918 55.3106 52.2635 55.5533 52.045C55.7936 51.8286 55.9317 51.5027 55.9317 51.0571C55.9317 50.6115 55.7936 50.2855 55.5533 50.0691C55.3106 49.8506 54.9398 49.7223 54.4328 49.7223H51.9336Z" fill="#171A1E"/>
<path d="M63.5685 49.5952V52.351H68.1096V53.591H63.5685V56.3484H68.5104V57.5885H62.2324V48.3535H68.5104V49.5952H63.5685Z" fill="#171A1E"/>
<path fill-rule="evenodd" clip-rule="evenodd" d="M62.0605 48.1846H68.6812V49.7646H63.7393V52.182H68.2803V53.7604H63.7393V56.1795H68.6812V57.7578H62.0605V48.1846ZM62.4031 48.5229V57.4195H68.3386V56.5178H63.3967V53.422H67.9377V52.5204H63.3967V49.4263H68.3386V48.5229H62.4031Z" fill="#171A1E"/>
<path fill-rule="evenodd" clip-rule="evenodd" d="M0.000976562 0.801992C0.000976562 0.359603 0.364114 0.000976562 0.812066 0.000976562H68.1899C68.6378 0.000976562 69.001 0.359603 69.001 0.801992V41.4398C69.001 41.8822 68.6378 42.2408 68.1899 42.2408C67.7419 42.2408 67.3788 41.8822 67.3788 41.4398V1.60301H1.62316V41.4398C1.62316 41.8822 1.26002 42.2408 0.812066 42.2408C0.364114 42.2408 0.000976562 41.8822 0.000976562 41.4398V0.801992Z" fill="#171A1E"/>
<path fill-rule="evenodd" clip-rule="evenodd" d="M0.812066 62.6123C1.26002 62.6123 1.62316 62.9709 1.62316 63.4133V70.3975H67.3788V63.4133C67.3788 62.9709 67.7419 62.6123 68.1899 62.6123C68.6378 62.6123 69.001 62.9709 69.001 63.4133V71.1985C69.001 71.6409 68.6378 71.9995 68.1899 71.9995H0.812066C0.364114 71.9995 0.000976562 71.6409 0.000976562 71.1985V63.4133C0.000976562 62.9709 0.364114 62.6123 0.812066 62.6123Z" fill="#171A1E"/>
</g>
<defs>
<clipPath id="clip0_6383_564">
<rect width="69" height="72" fill="white"/>
</clipPath>
</defs>
</svg>
