<svg width="20" height="20" viewBox="0 0 20 20" fill="none" xmlns="http://www.w3.org/2000/svg">
<path d="M9.35783 14.1656C9.17468 12.1808 7.50017 10.6213 5.46842 10.6213C3.43667 10.6213 1.76216 12.1808 1.57901 14.1656C0.616056 14.714 0 15.7415 0 16.8709C0 18.594 1.40179 19.9958 3.12481 19.9958H7.81203C9.53505 19.9958 10.9368 18.594 10.9368 16.8709C10.9368 15.7415 10.3208 14.714 9.35783 14.1656ZM7.81203 18.4334H3.12481C2.2633 18.4334 1.56241 17.7325 1.56241 16.8709C1.56241 16.2129 1.98523 15.6234 2.61461 15.4042L3.16387 15.2128C3.13465 14.6372 3.14391 14.6324 3.12493 14.4994C3.13993 13.2199 4.18541 12.1838 5.46838 12.1838C6.75127 12.1838 7.79668 13.2199 7.81183 14.4992C7.79207 14.6383 7.80187 14.641 7.77285 15.2128L8.32215 15.4042C8.95157 15.6234 9.37443 16.2129 9.37443 16.8709C9.37443 17.7325 8.67354 18.4334 7.81203 18.4334ZM18.3343 11.8137C17.6173 12.044 17.1296 12.1837 16.4053 12.1837C12.5285 12.1837 9.37443 9.02969 9.37443 5.15289C9.37443 3.59756 9.89159 2.59965 10.7849 1.40156L11.8298 0L10.0886 0.156553C7.74719 0.367087 5.60364 1.34633 4.05296 2.91389C3.26558 3.70986 2.65125 4.63183 2.22709 5.65419C1.78606 6.71729 1.56241 7.86281 1.56241 9.05891C1.56241 9.40342 1.58131 9.75078 1.61865 10.0913L3.17176 9.92105C3.14059 9.63685 3.12481 9.34678 3.12481 9.05891C3.12481 5.72809 5.3187 2.98275 8.53706 2.03277C8.08178 2.93455 7.81203 3.91691 7.81203 5.15289C7.81203 7.44823 8.70588 9.60618 10.3289 11.2292C11.952 12.8522 14.11 13.7461 16.4053 13.7461C16.6222 13.7461 16.825 13.736 17.018 13.7173C15.8695 15.3317 14.2203 16.4093 12.3173 16.7492L12.5921 18.2873C15.5455 17.7598 17.9855 15.7875 19.2863 12.8762L20 11.2789L18.3343 11.8137Z" fill="black"/>
</svg>
