<svg width="20" height="20" viewBox="0 0 20 20" fill="none" xmlns="http://www.w3.org/2000/svg">
<path d="M18.8649 15.9766H16.5603V20H14.9978V15.9766H14.1431V14.4141H17.1796L16.0353 7.61848C15.9618 7.25512 15.641 6.99219 15.2696 6.99219H13.3323C13.0488 6.46207 12.6467 6.00461 12.1615 5.65551C12.4672 5.51043 12.8075 5.42969 13.1634 5.42969H15.2696C16.3913 5.42969 17.3593 6.22926 17.5712 7.33082L17.5744 7.34863L18.8649 15.0128V15.9766ZM6.604 5.42969H3.479C2.18666 5.42969 1.13525 6.48109 1.13525 7.77344V14.3359H2.69775V20H4.26025V12.7734H2.69775V7.77344C2.69775 7.34266 3.04822 6.99219 3.479 6.99219H6.43822C6.72154 6.46238 7.12338 6.00516 7.60815 5.65613C7.30361 5.51113 6.96318 5.42969 6.604 5.42969ZM2.69775 2.34375C2.69775 1.05141 3.74916 0 5.0415 0C6.33385 0 7.38525 1.05141 7.38525 2.34375C7.38525 3.63609 6.33385 4.6875 5.0415 4.6875C3.74916 4.6875 2.69775 3.63609 2.69775 2.34375ZM4.26025 2.34375C4.26025 2.77453 4.61072 3.125 5.0415 3.125C5.47229 3.125 5.82275 2.77453 5.82275 2.34375C5.82275 1.91297 5.47229 1.5625 5.0415 1.5625C4.61072 1.5625 4.26025 1.91297 4.26025 2.34375ZM11.8728 2.34375C11.8728 1.05141 12.9242 0 14.2165 0C15.5088 0 16.5603 1.05141 16.5603 2.34375C16.5603 3.63609 15.5088 4.6875 14.2165 4.6875C12.9242 4.6875 11.8728 3.63609 11.8728 2.34375ZM13.4353 2.34375C13.4353 2.77453 13.7857 3.125 14.2165 3.125C14.6473 3.125 14.9978 2.77453 14.9978 2.34375C14.9978 1.91297 14.6473 1.5625 14.2165 1.5625C13.7857 1.5625 13.4353 1.91297 13.4353 2.34375ZM7.5415 8.82812C7.5415 7.53578 8.59291 6.48438 9.88525 6.48438C11.1776 6.48438 12.229 7.53578 12.229 8.82812C12.229 10.1205 11.1776 11.1719 9.88525 11.1719C8.59291 11.1719 7.5415 10.1205 7.5415 8.82812ZM9.104 8.82812C9.104 9.25891 9.45447 9.60938 9.88525 9.60938C10.316 9.60938 10.6665 9.25891 10.6665 8.82812C10.6665 8.39734 10.316 8.04688 9.88525 8.04688C9.45447 8.04688 9.104 8.39734 9.104 8.82812ZM12.5806 13.8281V20H11.0181V18.125H8.71338V20H7.15088V13.8281C7.15088 12.7512 8.02705 11.875 9.104 11.875H10.6274C11.7044 11.875 12.5806 12.7512 12.5806 13.8281ZM11.0181 16.5625V13.8281C11.0181 13.6127 10.8428 13.4375 10.6274 13.4375H9.104C8.88861 13.4375 8.71338 13.6127 8.71338 13.8281V16.5625H11.0181Z" fill="black"/>
</svg>
