<svg width="16" height="20" viewBox="0 0 16 20" fill="none" xmlns="http://www.w3.org/2000/svg">
<path fill-rule="evenodd" clip-rule="evenodd" d="M8 0C5.51472 0 3.5 2.01472 3.5 4.5C3.5 6.98528 5.51472 9 8 9C10.4853 9 12.5 6.98528 12.5 4.5C12.5 2.01472 10.4853 0 8 0ZM5.5 4.5C5.5 3.11929 6.6193 2 8 2C9.3807 2 10.5 3.11929 10.5 4.5C10.5 5.88071 9.3807 7 8 7C6.6193 7 5.5 5.88071 5.5 4.5ZM8 10.5C3.58172 10.5 0 14.0817 0 18.5V20H16V18.5C16 14.0817 12.4183 10.5 8 10.5ZM8 12.5C11.1453 12.5 13.7254 14.9202 13.9795 18H2.02054C2.27461 14.9202 4.85467 12.5 8 12.5Z" fill="black"/>
</svg>
