<svg width="24" height="24" viewBox="0 0 24 24" fill="none" xmlns="http://www.w3.org/2000/svg">
<path fill-rule="evenodd" clip-rule="evenodd" d="M5.47014 10.9396C7.74413 13.7189 10.2897 16.2645 13.069 18.5384L13.7887 19.1273C14.9816 20.1033 16.7199 20.0166 17.8098 18.9268L19.4927 17.2438L16.3107 14.0618L13.6591 16.7135L7.28392 10.3383L9.9444 7.69554L6.76478 4.51593L5.08183 6.19887C3.992 7.28871 3.9053 9.02704 4.88128 10.2199L5.47014 10.9396ZM11.8025 20.0864C8.92027 17.7281 6.28044 15.0883 3.92223 12.2061L3.33336 11.4863C1.70673 9.49828 1.85123 6.60105 3.66762 4.78466L6.76478 1.6875L12.7776 7.70027L10.1171 10.343L13.6591 13.885L16.3107 11.2334L22.3211 17.2438L19.224 20.341C17.4076 22.1574 14.5104 22.3019 12.5223 20.6752L11.8025 20.0864Z" fill="black"/>
</svg>
