<svg width="18" height="20" viewBox="0 0 18 20" fill="none" xmlns="http://www.w3.org/2000/svg">
<path d="M0 7.65625V20H17.1875V7.65625H0ZM1.5625 9.21875H15.625V14.2076L11.7188 10.3014L3.58262 18.4375H1.5625V9.21875ZM5.79238 18.4375L11.7188 12.5111L15.625 16.4173V18.4375H5.79238Z" fill="black"/>
<path d="M5.46875 12.1875C5.90022 12.1875 6.25 11.8377 6.25 11.4062C6.25 10.9748 5.90022 10.625 5.46875 10.625C5.03728 10.625 4.6875 10.9748 4.6875 11.4062C4.6875 11.8377 5.03728 12.1875 5.46875 12.1875Z" fill="black"/>
<path d="M3.125 4.6875H14.0625V6.09375H15.625V3.125H1.5625V6.09375H3.125V4.6875Z" fill="black"/>
<path d="M3.125 0H14.0625V1.5625H3.125V0Z" fill="black"/>
</svg>
