<svg width="20" height="20" viewBox="0 0 20 20" fill="none" xmlns="http://www.w3.org/2000/svg">
<g clip-path="url(#clip0_6318_6089)">
<path d="M6.78512 3.33328C5.59344 3.70828 3.61012 4.53328 3.7018 5.83328C3.7018 6.12496 3.78512 7.02496 6.9518 8.6166C7.33403 8.82015 7.80848 8.69703 8.04348 8.33328C8.66848 7.3166 8.73516 4.64996 7.6268 3.5416C7.40731 3.32019 7.08258 3.2398 6.78512 3.33328ZM6.81012 6.66664H6.78512C6.33161 6.42617 5.8995 6.14738 5.49344 5.83332C5.86489 5.58136 6.26489 5.37437 6.68512 5.21664C6.81278 5.68867 6.85508 6.17968 6.81012 6.66664Z" fill="black"/>
<path d="M7.50197 16.8084C6.93529 16.4251 5.43529 15.1417 5.38529 13.7751C5.43721 12.8419 5.93701 11.9913 6.72697 11.4918C7.08451 11.202 7.1394 10.6772 6.84955 10.3197C6.77525 10.228 6.68232 10.1532 6.57697 10.1001C5.09365 9.3418 2.03529 7.32512 2.03529 5.83344C2.03529 4.34176 5.09361 2.32512 6.57697 1.57512L5.82697 0.0917969C5.26865 0.366758 0.368652 2.90008 0.368652 5.8334C0.368652 8.0584 3.20197 10.0584 4.80197 11.0167C4.07287 11.7772 3.67697 12.7969 3.70197 13.85C3.78529 15.8 5.43529 17.325 6.20197 17.925V20.0001H7.86865V17.5001C7.86904 17.2229 7.73162 16.9636 7.50197 16.8084Z" fill="black"/>
<path d="M18.4018 8.28328C17.3426 7.18285 15.9685 6.43762 14.4685 6.14996C14.9966 5.61816 15.3161 4.91426 15.3685 4.16664C15.3961 3.73488 15.0686 3.3625 14.6368 3.33488C14.6224 3.33394 14.6079 3.33344 14.5935 3.33332C13.8102 3.175 11.2018 0.83332 11.2018 0H9.53516C9.53516 1.525 11.8852 3.81668 13.5102 4.66668C13.0949 5.26687 12.4761 5.69617 11.7685 5.875C11.3313 6.01867 11.0932 6.48957 11.2369 6.92683C11.35 7.27113 11.6727 7.50285 12.0352 7.5C12.0352 7.5 15.5518 7.5 17.1518 9.375C17.8345 10.2172 18.0981 11.3237 17.8685 12.3833C17.2768 16.6083 12.2518 16.6666 12.0352 16.6666C11.6937 16.6663 11.3866 16.8744 11.2602 17.1916C10.8753 18.0887 10.6118 19.0332 10.4769 20H12.1436C12.2453 19.4289 12.4073 18.8702 12.6269 18.3333C15.0436 18.15 18.9352 16.8166 19.5352 12.6416C19.8374 11.0922 19.4206 9.48922 18.4018 8.28328Z" fill="black"/>
<path d="M12.4019 15.6905C12.6838 15.881 13.0533 15.881 13.3352 15.6905C14.4526 14.9601 15.4015 13.9999 16.1185 12.8738C16.7156 11.8052 16.451 10.4614 15.4935 9.69879C14.6952 9.15786 13.642 9.18129 12.8685 9.75711C12.095 9.18125 11.0418 9.15786 10.2435 9.69879C9.28596 10.4614 9.02142 11.8052 9.61849 12.8738C10.3356 13.9998 11.2844 14.9601 12.4019 15.6905ZM11.2019 11.0488C11.5519 10.7988 12.0352 11.1905 12.2602 11.4155C12.5852 11.7386 13.1101 11.7386 13.4352 11.4155C14.1185 10.7322 15.1019 11.0488 14.6019 12.1238C14.1458 12.8418 13.5576 13.4667 12.8685 13.9655C12.1717 13.4678 11.5751 12.8429 11.1102 12.1238C10.8733 11.7914 10.9122 11.3363 11.2019 11.0488Z" fill="black"/>
</g>
<defs>
<clipPath id="clip0_6318_6089">
<rect width="20" height="20" fill="white"/>
</clipPath>
</defs>
</svg>
