<svg width="20" height="20" viewBox="0 0 20 20" fill="none" xmlns="http://www.w3.org/2000/svg">
<path d="M13.75 7.5C12.3441 7.5 11.0453 7.96672 10 8.75316C8.95469 7.96672 7.65586 7.5 6.25 7.5C2.80371 7.5 0 10.3038 0 13.75C0 17.1963 2.80371 20 6.25 20C7.65586 20 8.95469 19.5333 10 18.7468C11.0453 19.5333 12.3441 20 13.75 20C17.1963 20 20 17.1963 20 13.75C20 10.3038 17.1963 7.5 13.75 7.5ZM8.86215 17.6404C8.11523 18.1435 7.21633 18.4375 6.25 18.4375C3.66531 18.4375 1.5625 16.3347 1.5625 13.75C1.5625 11.1653 3.66531 9.0625 6.25 9.0625C7.21633 9.0625 8.11523 9.35648 8.86215 9.85965C8.01012 10.9279 7.5 12.2804 7.5 13.75C7.5 15.2196 8.01012 16.572 8.86215 17.6404ZM10 16.5594C9.4116 15.776 9.0625 14.803 9.0625 13.75C9.0625 12.697 9.4116 11.724 10 10.9406C10.5884 11.724 10.9375 12.697 10.9375 13.75C10.9375 14.803 10.5884 15.776 10 16.5594ZM13.75 18.4375C12.7837 18.4375 11.8848 18.1435 11.1379 17.6404C11.9899 16.572 12.5 15.2196 12.5 13.75C12.5 12.2804 11.9899 10.9279 11.1379 9.85965C11.8848 9.35648 12.7837 9.0625 13.75 9.0625C16.3347 9.0625 18.4375 11.1653 18.4375 13.75C18.4375 16.3347 16.3347 18.4375 13.75 18.4375ZM10 7.22059L13.2197 4.00094C13.6624 3.55816 13.9062 2.96965 13.9062 2.34375C13.9062 1.71785 13.6624 1.12934 13.2197 0.686602C12.3368 -0.19625 10.9191 -0.226172 10 0.596953C9.56973 0.211055 9.01977 0 8.4375 0C7.81164 0 7.22309 0.243828 6.78031 0.686602C6.33758 1.12934 6.09375 1.71785 6.09375 2.34375C6.09375 2.96965 6.33758 3.55816 6.78031 4.0009L10 7.22059ZM7.88519 1.79145C8.19062 1.48602 8.6843 1.48594 8.98977 1.79145L10 2.80164L11.0102 1.79145C11.3156 1.48602 11.8093 1.48594 12.1148 1.79145C12.4202 2.09684 12.4204 2.59055 12.1148 2.89605L10 5.01086L7.88519 2.89605C7.57977 2.59066 7.57965 2.09695 7.88519 1.79145Z" fill="black"/>
</svg>
