<svg width="56" height="56" viewBox="0 0 56 56" fill="none" xmlns="http://www.w3.org/2000/svg">
<path d="M34.125 25.375H29.75V34.125H38.5V29.75H34.125V25.375Z" fill="#171A1E"/>
<path d="M31.9375 16.625C23.4942 16.625 16.625 23.4942 16.625 31.9375C16.625 40.3808 23.4942 47.25 31.9375 47.25C40.3808 47.25 47.25 40.3808 47.25 31.9375C47.25 23.4942 40.3808 16.625 31.9375 16.625ZM31.9375 42.875C25.9066 42.875 21 37.9684 21 31.9375C21 25.9066 25.9066 21 31.9375 21C37.9684 21 42.875 25.9066 42.875 31.9375C42.875 37.9684 37.9684 42.875 31.9375 42.875Z" fill="#171A1E"/>
<path d="M34.125 7.97552V4.375H38.5V0H25.375V4.375H29.75V7.97552C21.3501 8.73611 14.1818 13.8302 10.5075 21H3.5V25.375H8.78467C8.38436 26.7852 8.11147 28.2482 7.97552 29.75H0V34.125H7.97552C8.11147 35.6268 8.38447 37.0898 8.78467 38.5H3.5V42.875H10.5075C14.497 50.6599 22.6053 56 31.9375 56C45.2057 56 56 45.2056 56 31.9375C56 19.4068 46.3717 9.08447 34.125 7.97552ZM31.9375 51.625C21.0818 51.625 12.25 42.7932 12.25 31.9375C12.25 21.0818 21.0818 12.25 31.9375 12.25C42.7932 12.25 51.625 21.0818 51.625 31.9375C51.625 42.7932 42.7932 51.625 31.9375 51.625Z" fill="#171A1E"/>
</svg>
