<svg width="20" height="20" viewBox="0 0 20 20" fill="none" xmlns="http://www.w3.org/2000/svg">
<path d="M12.1875 9.0625H10.625V12.1875H13.75V10.625H12.1875V9.0625Z" fill="black"/>
<path d="M11.4062 5.9375C8.39078 5.9375 5.9375 8.39078 5.9375 11.4062C5.9375 14.4217 8.39078 16.875 11.4062 16.875C14.4217 16.875 16.875 14.4217 16.875 11.4062C16.875 8.39078 14.4217 5.9375 11.4062 5.9375ZM11.4062 15.3125C9.25234 15.3125 7.5 13.5602 7.5 11.4062C7.5 9.25234 9.25234 7.5 11.4062 7.5C13.5602 7.5 15.3125 9.25234 15.3125 11.4062C15.3125 13.5602 13.5602 15.3125 11.4062 15.3125Z" fill="black"/>
<path d="M12.1875 2.8484V1.5625H13.75V0H9.0625V1.5625H10.625V2.8484C7.62504 3.12004 5.06492 4.93937 3.7527 7.5H1.25V9.0625H3.13738C2.99441 9.56613 2.89695 10.0886 2.8484 10.625H0V12.1875H2.8484C2.89695 12.7239 2.99445 13.2464 3.13738 13.75H1.25V15.3125H3.7527C5.1775 18.0928 8.07332 20 11.4062 20C16.1449 20 20 16.1448 20 11.4062C20 6.93102 16.5613 3.24445 12.1875 2.8484ZM11.4062 18.4375C7.52922 18.4375 4.375 15.2833 4.375 11.4062C4.375 7.52922 7.52922 4.375 11.4062 4.375C15.2833 4.375 18.4375 7.52922 18.4375 11.4062C18.4375 15.2833 15.2833 18.4375 11.4062 18.4375Z" fill="black"/>
</svg>
