<svg width="40" height="56" viewBox="0 0 40 56" fill="none" xmlns="http://www.w3.org/2000/svg">
<path d="M39.375 0L27.9211 5.74219H11.4539L0 0V21.4375H4.375V47.6875H8.75V56H30.625V47.6875H35V21.4375H39.375V0ZM8.75 34.5625H13.125V43.3125C11.5948 43.3125 10.2802 43.3125 8.75 43.3125V34.5625ZM17.5 43.3125V34.5625H21.875V43.3125H17.5ZM13.125 51.625V47.6875H26.25V51.625H13.125ZM26.25 43.3125V34.5625H30.625V43.3125C29.0948 43.3125 27.7802 43.3125 26.25 43.3125ZM30.625 30.1875H8.75V21.4375H30.625V30.1875ZM35 17.0625H4.375V7.09417L10.4211 10.1172H28.9539L35 7.09417V17.0625Z" fill="#171A1E"/>
</svg>
